<?xml version="1.0" encoding="utf-8"?>
<!-- Generator: Adobe Illustrator 24.1.1, SVG Export Plug-In . SVG Version: 6.00 Build 0)  -->
<svg version="1.1" xmlns="http://www.w3.org/2000/svg" xmlns:xlink="http://www.w3.org/1999/xlink" x="0px" y="0px"
	 viewBox="0 0 1024 1024" style="enable-background:new 0 0 1024 1024;" xml:space="preserve">
<style type="text/css">
	.st0{fill:#FFFFFF;}
	.st1{display:none;}
	.st2{display:inline;}
</style>
<g id="Layer_3">
	<circle class="st0" cx="511.5" cy="512.5" r="501.5"/>
	<path d="M512,20c66.43,0,130.86,13.01,191.5,38.66c58.58,24.78,111.2,60.26,156.39,105.45s80.67,97.81,105.45,156.39
		C990.99,381.14,1004,445.57,1004,512s-13.01,130.86-38.66,191.5c-24.78,58.58-60.26,111.2-105.45,156.39
		s-97.81,80.67-156.39,105.45C642.86,990.99,578.43,1004,512,1004s-130.86-13.01-191.5-38.66
		c-58.58-24.78-111.2-60.26-156.39-105.45S83.43,762.09,58.66,703.5C33.01,642.86,20,578.43,20,512s13.01-130.86,38.66-191.5
		c24.78-58.58,60.26-111.2,105.45-156.39S261.91,83.43,320.5,58.66C381.14,33.01,445.57,20,512,20 M512,0C229.23,0,0,229.23,0,512
		s229.23,512,512,512s512-229.23,512-512S794.77,0,512,0L512,0z"/>
</g>
<g id="Layer_4">
	<path d="M579.18,267c-10.04,0-18.18,8.14-18.18,18.18V374c0,20.9-7.86,36.62-24,48.05V285.18c0-10.04-8.14-18.18-18.18-18.18
		h-13.65c-10.04,0-18.18,8.14-18.18,18.18v136.88c-16.14-11.43-24-27.16-24-48.05v-88.82c0-10.04-8.14-18.18-18.18-18.18h-13.65
		c-10.04,0-18.18,8.14-18.18,18.18V374c0,38.63,16.66,70.09,48.19,90.99c9.1,6.03,18.14,10.27,25.81,13.21v258.2
		c0,11.38,9.23,20.61,20.61,20.61h8.78c11.38,0,20.61-9.23,20.61-20.61v-258.2c7.68-2.94,16.72-7.18,25.81-13.21
		C594.34,444.09,611,412.63,611,374v-88.82c0-10.04-8.14-18.18-18.18-18.18H579.18z"/>
</g>
<g id="Layer_5" class="st1">
	<g transform="translate(0,-952.36218)" class="st2">
		<path d="M511.06,1296.7c-0.32,0.02-0.92,0.08-2.06,0.37c-11.86,3-21.28,10.23-24.89,19.84s-2.02,18.91,0.37,27.7
			c4.79,17.56,13.98,35.71,15.72,49.4c0.15,1.17,0.24,6.48,0.19,10.48c-49.19,0-97.88,0-138.1,0
			c-62.79,0-113.78,51.16-113.78,113.77c0,62.64,51.18,113.77,113.96,113.77c56.45,0,102.72-41.97,111.72-95.81h75.6
			c9,53.84,55.27,95.81,111.72,95.81c62.78,0,113.96-51.13,113.96-113.77c0-62.62-50.99-113.77-113.78-113.77
			c-38.46,0-87.98,0-137.36,0c0.14-4.55-0.03-9.27-0.56-13.47c-2.58-20.29-12.43-39.35-16.09-52.77
			c-1.83-6.71-1.76-11.22-1.12-12.91c0.59-1.58,2.1-4.39,7.49-4.68c25.36-0.06,52.84,0,76.16,0c0.3-0.01-0.62,0.27,2.25-0.37
			c5.66-1.44,9.73-7.52,8.91-13.3c-0.83-5.79-6.43-10.48-12.27-10.28C562.33,1296.67,534.74,1296.72,511.06,1296.7L511.06,1296.7z
			 M362.29,1428.44H512h149.71c49.84,0,89.82,40.14,89.82,89.82c0,49.65-40.17,89.82-90.01,89.82c-47.71,0-86.53-37.79-89.64-84.58
			c-0.38-6.02-5.95-11.24-11.98-11.23h-95.81c-6.03,0-11.6,5.21-11.98,11.23c-3.11,46.79-41.93,84.58-89.64,84.58
			c-49.84,0-90.01-40.16-90.01-89.82C272.47,1468.58,312.45,1428.44,362.29,1428.44z M661.71,1446.4
			c-13.11,0-23.95,10.87-23.95,23.95s10.84,23.95,23.95,23.95s23.95-10.87,23.95-23.95S674.82,1446.4,661.71,1446.4z
			 M360.98,1458.19c-5.88,0.65-10.79,6.24-10.67,12.16v35.93c-12.3,0-24.85,0-37.05,0c-6.27,0.29-11.71,6.27-11.42,12.54
			c0.29,6.27,6.27,11.71,12.54,11.41h35.93v35.93c-0.09,6.33,5.65,12.15,11.98,12.15s12.07-5.82,11.98-12.15v-35.93h35.93
			c6.33,0.09,12.15-5.65,12.15-11.98c0-6.33-5.82-12.07-12.15-11.98h-35.93v-35.93C374.42,1463.56,367.74,1457.45,360.98,1458.19
			L360.98,1458.19z M613.8,1494.31c-12.61,0-23.95,10.84-23.95,23.95c0,13.12,11.35,23.95,23.95,23.95
			c12.61,0,23.95-10.83,23.95-23.95C637.75,1505.14,626.41,1494.31,613.8,1494.31z M709.61,1494.31
			c-13.06,0-23.95,10.88-23.95,23.95c0,13.08,10.89,23.77,23.95,23.77c13.06,0,23.95-10.69,23.95-23.77
			C733.57,1505.18,722.68,1494.31,709.61,1494.31z M661.71,1542.21c-13.11,0-23.95,10.87-23.95,23.95
			c0,13.09,10.84,23.95,23.95,23.95s23.95-10.87,23.95-23.95S674.82,1542.21,661.71,1542.21L661.71,1542.21z"/>
	</g>
</g>
<g id="Layer_1" class="st1">
	<g class="st2">
		<path d="M512.74,798.33c-43.77,0-61.57,1.48-61.57,1.48l6.68-12.61c14.84-26.7,18.55-43.02,18.55-189.16v-23
			c0-128.33-6.68-149.1-18.55-170.61l-6.68-12.61l103.11-18.54c0,0-6.68,41.54-6.68,201.03v23.74c0,137.23,2.97,159.49,18.54,189.16
			l6.68,12.61C572.83,799.82,556.51,798.33,512.74,798.33z M511.26,314.68c-28.19,0-48.96-14.84-48.96-43.77
			c0-31.9,19.29-46.73,49.7-46.73c28.19,0,48.96,14.84,48.96,44.51C560.96,299.85,540.93,314.68,511.26,314.68z"/>
	</g>
</g>
<g id="Layer_2" class="st1">
	<g class="st2">
		<path d="M512,806.26L372.11,468.8c-19.39-46.77-14.36-100,13.44-142.4c13.17-20.08,31.02-36.92,51.61-48.7
			c22.05-12.61,46.31-19.22,72.11-19.66c1.83-0.03,3.64-0.03,5.45,0c25.8,0.44,50.06,7.05,72.12,19.66
			c20.59,11.77,38.44,28.61,51.61,48.7c27.8,42.39,32.83,95.63,13.44,142.4L512,806.26z M512,308.02c-0.63,0-1.27,0.01-1.9,0.02
			c-33.88,0.57-64.04,17.26-82.75,45.78c-19,28.97-22.3,63.89-9.06,95.83L512,675.69l93.71-226.04
			c13.24-31.93,9.94-66.86-9.06-95.83c-18.71-28.52-48.87-45.21-82.76-45.78C513.27,308.03,512.63,308.02,512,308.02z"/>
	</g>
</g>
</svg>
