<?xml version="1.0" encoding="utf-8"?>
<!-- Generator: Adobe Illustrator 24.1.1, SVG Export Plug-In . SVG Version: 6.00 Build 0)  -->
<svg version="1.1" id="Layer_1" xmlns="http://www.w3.org/2000/svg" xmlns:xlink="http://www.w3.org/1999/xlink" x="0px" y="0px"
	 viewBox="0 0 1024 1024" style="enable-background:new 0 0 1024 1024;" xml:space="preserve">
<style type="text/css">
	.st0{fill:#FFFFFF;}
</style>
<path class="st0" d="M796.02,753.65L607.8,565.42c27.3-36.3,42.08-80.26,42.08-126.49c0-56.36-21.95-109.35-61.8-149.2
	s-92.84-61.8-149.2-61.8s-109.35,21.95-149.2,61.8c-82.27,82.27-82.27,216.13,0,298.4c41.13,41.13,95.17,61.7,149.2,61.7
	c44.57,0,89.14-14.01,126.47-42L753.6,796.07L796.02,753.65z M332.1,545.7c-58.87-58.88-58.87-154.67,0-213.55
	c28.52-28.52,66.44-44.23,106.77-44.23s78.25,15.71,106.77,44.23l0,0c28.52,28.52,44.23,66.44,44.23,106.77
	s-15.71,78.25-44.23,106.77C486.78,604.58,390.98,604.58,332.1,545.7z"/>
</svg>
